<svg xmlns="http://www.w3.org/2000/svg" viewBox="0 0 32 32">
  <!-- Fondo redondeado -->
  <rect width="32" height="32" rx="7" fill="#0e7490"/>
  <!-- Gota de agua (izquierda, celeste claro) -->
  <path d="M11 4C11 4 5.5 11.5 5.5 16a5.5 5.5 0 0 0 11 0C16.5 11.5 11 4 11 4z" fill="#e0f2fe"/>
  <!-- Brillo en la gota -->
  <ellipse cx="9.5" cy="14" rx="1.2" ry="2" fill="white" opacity="0.5" transform="rotate(-20 9.5 14)"/>
  <!-- Llama de gas (derecha, naranja) -->
  <path d="M22 5c0 0-0.5 3-0.5 5 0 1 0.3 1.8 0.8 2.3C22 11 21.5 9.8 21 9c0.2 2.2-0.3 4.5-1.8 5.8C19 13 18 11.5 18 10c0-3 4-5 4-5z" fill="#fb923c"/>
  <path d="M21.5 11.5c0 2-1 3.5-2 4.5 0-1-0.5-2-0.5-3 0-1 2.5-1.5 2.5-1.5z" fill="#fde68a"/>
  <!-- Llama interior amarilla (centro) -->
  <ellipse cx="20.5" cy="19.5" rx="2" ry="1.2" fill="#fef08a" opacity="0.6"/>
</svg>
